<?xml version="1.0" encoding="UTF-8"?>
<!DOCTYPE svg PUBLIC "-//W3C//DTD SVG 1.1//EN" "http://www.w3.org/Graphics/SVG/1.1/DTD/svg11.dtd">
<!-- Creator: CorelDRAW -->
<svg xmlns="http://www.w3.org/2000/svg" xml:space="preserve" width="108.373mm" height="104.996mm" version="1.1" style="shape-rendering:geometricPrecision; text-rendering:geometricPrecision; image-rendering:optimizeQuality; fill-rule:evenodd; clip-rule:evenodd"
viewBox="0 0 13833 4217.33"
 xmlns:xlink="http://www.w3.org/1999/xlink"
 xmlns:xodm="http://www.corel.com/coreldraw/odm/2003">
 <defs>
  <style type="text/css">
   <![CDATA[
    .fil0 {fill:#060320}
    .fil7 {fill:#8740EA}
    .fil5 {fill:#974CED}
    .fil6 {fill:#E791FF}
    .fil4 {fill:#884BD4;fill-rule:nonzero}
    .fil2 {fill:#974CED;fill-rule:nonzero}
    .fil8 {fill:white;fill-rule:nonzero}
    .fil1 {fill:url(#id0);fill-rule:nonzero}
    .fil3 {fill:url(#id1);fill-rule:nonzero}
   ]]>
  </style>
  <linearGradient id="id0" gradientUnits="objectBoundingBox" x1="50%" y1="100%" x2="50%" y2="0%">
   <stop offset="0" style="stop-opacity:1; stop-color:#5A1EE2"/>
   <stop offset="1" style="stop-opacity:1; stop-color:#9F52EE"/>
  </linearGradient>
  <linearGradient id="id1" gradientUnits="userSpaceOnUse" x1="2346.93" y1="2002.05" x2="3249.83" y2="1575.43">
   <stop offset="0" style="stop-opacity:1; stop-color:#8740EA"/>
   <stop offset="1" style="stop-opacity:1; stop-color:#E791FF"/>
  </linearGradient>
 </defs>
 <g id="Слой_x0020_1">
  <metadata id="CorelCorpID_0Corel-Layer"/>
  <rect class="fil0" x="-0" y="-0.01" width="13833.01" height="4217.33"/>
  <g id="_2347574066544">
   <path class="fil1" d="M2291.83 1118.85c-311.27,0 -593.06,126.16 -797.01,330.11 -203.96,203.96 -330.11,485.75 -330.11,797.01 0,311.27 126.16,593.06 330.11,797.02 203.96,203.96 485.75,330.11 797.01,330.11 311.27,0 593.06,-126.16 797.02,-330.11 31.49,-31.49 61.14,-64.84 88.74,-99.86 15,-19.03 42.35,-22.82 61.95,-8.57l146.05 106.12c10.27,7.46 16.39,17.63 18.15,30.2 1.78,12.57 -1.29,24.04 -9.09,34.04 -35.47,45.48 -73.7,88.72 -114.43,129.45 -252.96,252.96 -602.43,409.42 -988.4,409.42 -385.97,0 -735.43,-156.46 -988.39,-409.42 -252.96,-252.96 -409.42,-602.43 -409.42,-988.4 0,-385.97 156.46,-735.43 409.42,-988.39 252.96,-252.96 602.41,-409.42 988.39,-409.42 384.7,0 733.14,155.45 985.91,406.96l-234.34 150.84c-199.42,-178.53 -462.81,-287.12 -751.57,-287.12z"/>
   <polygon class="fil2" points="1240.33,550.46 1520.71,1263.75 1436.84,1296.52 1156.45,583.23 "/>
   <polygon class="fil3" points="2284.39,2073.71 3202.4,1361.38 3312.37,1503.77 2394.36,2216.1 "/>
   <polygon class="fil1" points="999.57,2121.97 2640.01,3109.59 2546.97,3263.97 906.52,2276.35 "/>
   <path class="fil4" d="M2558.6 3158.4c161.23,-198.39 325.92,-353.5 494.01,-465.27 169.95,-113.02 343.52,-181.87 520.68,-206.56l12.34 89.16c-163.51,22.78 -324.64,86.94 -483.32,192.46 -160.55,106.75 -318.55,255.76 -473.93,446.95l-69.78 -56.75z"/>
   <path class="fil5" d="M1198.39 371.18c108.07,0 195.67,87.6 195.67,195.67 0,108.07 -87.6,195.67 -195.67,195.67 -108.07,0 -195.67,-87.6 -195.67,-195.67 0,-108.07 87.6,-195.67 195.67,-195.67z"/>
   <path class="fil6" d="M3257.39 1000.15c238.82,0 432.42,193.6 432.42,432.42 0,238.82 -193.6,432.42 -432.42,432.42 -238.82,0 -432.42,-193.6 -432.42,-432.42 0,-238.82 193.6,-432.42 432.42,-432.42z"/>
   <path class="fil6" d="M2593.49 2942.83c134.73,0 243.95,109.22 243.95,243.95 0,134.73 -109.22,243.95 -243.95,243.95 -134.73,0 -243.95,-109.22 -243.95,-243.95 0,-134.73 109.22,-243.95 243.95,-243.95z"/>
   <path class="fil6" d="M3579.46 2345.65c102.45,0 185.51,83.05 185.51,185.51 0,102.45 -83.05,185.51 -185.51,185.51 -102.45,0 -185.51,-83.05 -185.51,-185.51 0,-102.45 83.05,-185.51 185.51,-185.51z"/>
   <path class="fil6" d="M953.04 1929.79c148.77,0 269.36,120.6 269.36,269.36 0,148.77 -120.6,269.36 -269.36,269.36 -148.77,0 -269.36,-120.6 -269.36,-269.36 0,-148.77 120.6,-269.36 269.36,-269.36z"/>
   <path class="fil7" d="M2339.37 1987.36c87.01,0 157.55,70.54 157.55,157.55 0,87.01 -70.54,157.55 -157.55,157.55 -87.01,0 -157.55,-70.54 -157.55,-157.55 0,-87.01 70.54,-157.55 157.55,-157.55z"/>
  </g>
  <path class="fil8" d="M4738.75 3196.92c151.91,0 288.11,-52.39 387.63,-136.2l0 110.01 298.58 0 0 -1327.91 -298.58 0 0 110.01c-99.53,-83.81 -235.73,-136.2 -387.63,-136.2 -395.49,0 -686.22,301.21 -686.22,691.46 0,387.63 290.73,688.84 686.22,688.84zm0 -295.96c-230.49,0 -387.63,-167.62 -387.63,-392.88 0,-227.87 157.15,-395.49 387.63,-395.49 230.49,0 387.63,167.62 387.63,395.49 0,225.25 -157.15,392.88 -387.63,392.88zm1033.39 -395.49c0,390.25 290.73,691.46 686.22,691.46 151.91,0 288.11,-52.39 387.63,-136.2l0 110.01 298.58 0 0 -1833.41 -298.58 0 0 615.5c-99.53,-83.81 -235.73,-136.2 -387.63,-136.2 -395.49,0 -686.22,301.21 -686.22,688.84zm295.96 0c0,-227.87 157.15,-392.88 390.26,-392.88 233.1,0 387.63,165.01 387.63,392.88 0,227.87 -157.15,395.49 -387.63,395.49 -230.49,0 -390.26,-167.62 -390.26,-395.49zm2536.8 136.2l251.44 529.07 225.25 0 633.83 -1327.91 -327.39 0 -421.69 874.8 -248.82 -531.69 -227.86 0 -248.82 531.69 -419.07 -874.8 -330.02 0 636.45 1327.91 222.64 0 254.05 -529.07zm2955.86 -798.85l-330.02 0 -419.06 885.28 -419.07 -885.28 -330.02 0 584.08 1228.38 -322.16 678.37 327.39 0 908.85 -1906.75zm643.13 665.26c0,-240.96 125.72,-395.49 345.73,-395.49 220.01,0 343.11,154.71 343.11,395.49l0 662.65 298.59 0 0 -662.65c0,-403.35 -254.06,-691.46 -641.7,-691.46 -144.06,0 -259.3,47.14 -345.73,117.86l0 -91.67 -295.96 0 0 1327.91 295.96 0 0 -662.65z"/>
 </g>
</svg>
