<svg clip-rule="evenodd" fill-rule="evenodd" height="104.996mm" image-rendering="optimizeQuality" shape-rendering="geometricPrecision" text-rendering="geometricPrecision" viewBox="0 0 2410.37 2560.05" width="108.373mm" xmlns="http://www.w3.org/2000/svg" xmlns:xlink="http://www.w3.org/1999/xlink"><linearGradient id="a" gradientUnits="objectBoundingBox" x1="50%" x2="50%" y1="100%" y2="0%"><stop offset="0" stop-color="#5a1ee2"/><stop offset="1" stop-color="#9f52ee"/></linearGradient><linearGradient id="b" gradientUnits="userSpaceOnUse" x1="1279.45" x2="1826.35" y1="1276.73" y2="1018.32"><stop offset="0" stop-color="#8740ea"/><stop offset="1" stop-color="#e791ff"/></linearGradient><path d="m0 0h2410.38v2560.05h-2410.38z" fill="none"/><g fill-rule="nonzero"><path d="m1246.08 741.76c-188.54 0-359.22 76.41-482.76 199.96-123.54 123.54-199.96 294.22-199.96 482.76s76.41 359.23 199.96 482.77c123.54 123.54 294.22 199.96 482.76 199.96s359.23-76.41 482.77-199.96c19.07-19.07 37.03-39.27 53.75-60.49 9.08-11.53 25.65-13.82 37.52-5.19l88.47 64.28c6.22 4.52 9.92 10.68 11 18.29s-.78 14.56-5.51 20.62c-21.48 27.55-44.64 53.74-69.31 78.41-153.22 153.22-364.9 247.99-598.68 247.99-233.79 0-445.46-94.77-598.68-247.99s-247.99-364.9-247.99-598.68c0-233.79 94.77-445.46 247.99-598.68s364.89-247.99 598.68-247.99c233.02 0 444.07 94.16 597.18 246.5l-141.94 91.37c-120.79-108.14-280.33-173.91-455.23-173.91z" fill="url(#a)"/><path d="m609.17 397.48 169.83 432.05-50.81 19.85-169.83-432.05z" fill="#974ced"/><path d="m1241.57 1320.13 556.05-431.46 66.61 86.25-556.05 431.47z" fill="url(#b)"/><path d="m463.33 1349.37 993.64 598.21-56.35 93.51-993.64-598.21z" fill="url(#a)"/><path d="m1407.66 1977.15c97.66-120.17 197.41-214.12 299.23-281.82 102.94-68.46 208.08-110.16 315.38-125.11l7.48 54.01c-99.04 13.8-196.64 52.66-292.75 116.58-97.25 64.66-192.95 154.92-287.06 270.72l-42.27-34.38z" fill="#884bd4"/></g><path d="m583.76 288.89c65.46 0 118.52 53.06 118.52 118.52s-53.06 118.52-118.52 118.52-118.52-53.06-118.52-118.52 53.06-118.52 118.52-118.52z" fill="#974ced"/><path d="m1830.93 669.87c144.66 0 261.92 117.27 261.92 261.92 0 144.66-117.27 261.92-261.92 261.92-144.66 0-261.92-117.27-261.92-261.92 0-144.66 117.27-261.92 261.92-261.92z" fill="#e791ff"/><path d="m1428.79 1846.58c81.61 0 147.76 66.16 147.76 147.76 0 81.61-66.16 147.76-147.76 147.76-81.61 0-147.76-66.16-147.76-147.76 0-81.61 66.16-147.76 147.76-147.76z" fill="#e791ff"/><path d="m2026.01 1484.86c62.06 0 112.36 50.31 112.36 112.36 0 62.06-50.31 112.36-112.36 112.36-62.06 0-112.36-50.31-112.36-112.36 0-62.06 50.31-112.36 112.36-112.36z" fill="#e791ff"/><path d="m435.16 1232.96c90.11 0 163.16 73.05 163.16 163.16s-73.05 163.16-163.16 163.16-163.16-73.05-163.16-163.16 73.05-163.16 163.16-163.16z" fill="#e791ff"/><path d="m1274.87 1267.83c52.7 0 95.43 42.73 95.43 95.43s-42.73 95.43-95.43 95.43-95.43-42.73-95.43-95.43 42.73-95.43 95.43-95.43z" fill="#8740ea"/></svg>
