<?xml version="1.0" encoding="UTF-8"?>
<!DOCTYPE svg PUBLIC "-//W3C//DTD SVG 1.1//EN" "http://www.w3.org/Graphics/SVG/1.1/DTD/svg11.dtd">
<!-- Creator: CorelDRAW -->
<svg xmlns="http://www.w3.org/2000/svg" xml:space="preserve" width="108.373mm" height="104.996mm" version="1.1" style="shape-rendering:geometricPrecision; text-rendering:geometricPrecision; image-rendering:optimizeQuality; fill-rule:evenodd; clip-rule:evenodd"
viewBox="0 0 14313.61 3866.19"
 xmlns:xlink="http://www.w3.org/1999/xlink"
 xmlns:xodm="http://www.corel.com/coreldraw/odm/2003">
 <defs>
  <style type="text/css">
   <![CDATA[
    .fil6 {fill:#8740EA}
    .fil4 {fill:#974CED}
    .fil5 {fill:#E791FF}
    .fil3 {fill:#884BD4;fill-rule:nonzero}
    .fil1 {fill:#974CED;fill-rule:nonzero}
    .fil7 {fill:white;fill-rule:nonzero}
    .fil0 {fill:url(#id0);fill-rule:nonzero}
    .fil2 {fill:url(#id1);fill-rule:nonzero}
   ]]>
  </style>
  <linearGradient id="id0" gradientUnits="objectBoundingBox" x1="50%" y1="100%" x2="50%" y2="0%">
   <stop offset="0" style="stop-opacity:1; stop-color:#5A1EE2"/>
   <stop offset="1" style="stop-opacity:1; stop-color:#9F52EE"/>
  </linearGradient>
  <linearGradient id="id1" gradientUnits="userSpaceOnUse" x1="1903.41" y1="1866.35" x2="2936.67" y2="1378.14">
   <stop offset="0" style="stop-opacity:1; stop-color:#8740EA"/>
   <stop offset="1" style="stop-opacity:1; stop-color:#E791FF"/>
  </linearGradient>
 </defs>
 <g id="Слой_x0020_1">
  <metadata id="CorelCorpID_0Corel-Layer"/>
  <g id="_2346262090720">
   <path class="fil0" d="M1840.35 855.62c-356.21,0 -678.69,144.37 -912.09,377.78 -233.41,233.41 -377.78,555.88 -377.78,912.09 0,356.21 144.37,678.7 377.78,912.11 233.41,233.41 555.88,377.78 912.09,377.78 356.21,0 678.7,-144.37 912.11,-377.78 36.04,-36.04 69.97,-74.2 101.55,-114.28 17.16,-21.78 48.47,-26.11 70.9,-9.81l167.14 121.44c11.75,8.54 18.75,20.18 20.77,34.56 2.03,14.38 -1.48,27.51 -10.41,38.96 -40.59,52.05 -84.34,101.53 -130.95,148.14 -289.49,289.49 -689.41,468.54 -1131.11,468.54 -441.71,0 -841.61,-179.05 -1131.1,-468.54 -289.49,-289.49 -468.54,-689.41 -468.54,-1131.11 0,-441.71 179.05,-841.61 468.54,-1131.1 289.49,-289.49 689.39,-468.54 1131.1,-468.54 440.25,0 839,177.9 1128.26,465.72l-268.17 172.62c-228.21,-204.31 -529.64,-328.58 -860.09,-328.58z"/>
   <polygon class="fil1" points="637.02,205.17 957.89,1021.45 861.9,1058.95 541.04,242.67 "/>
   <polygon class="fil2" points="1831.83,1948.35 2882.4,1133.17 3008.25,1296.13 1957.68,2111.31 "/>
   <polygon class="fil0" points="361.5,2003.59 2238.8,3133.81 2132.32,3310.48 255.02,2180.26 "/>
   <path class="fil3" d="M2145.63 3189.67c184.51,-227.04 372.98,-404.54 565.34,-532.45 194.49,-129.34 393.12,-208.13 595.86,-236.38l14.13 102.04c-187.12,26.07 -371.51,99.5 -553.11,220.25 -183.73,122.16 -364.54,292.69 -542.36,511.49l-79.86 -64.95z"/>
   <path class="fil4" d="M589.03 0c123.67,0 223.92,100.25 223.92,223.92 0,123.67 -100.25,223.92 -223.92,223.92 -123.67,0 -223.92,-100.25 -223.92,-223.92 0,-123.67 100.25,-223.92 223.92,-223.92z"/>
   <path class="fil5" d="M2945.33 719.79c273.31,0 494.86,221.55 494.86,494.86 0,273.31 -221.55,494.86 -494.86,494.86 -273.31,0 -494.86,-221.55 -494.86,-494.86 0,-273.31 221.55,-494.86 494.86,-494.86z"/>
   <path class="fil5" d="M2185.56 2942.97c154.18,0 279.17,124.99 279.17,279.17 0,154.18 -124.99,279.17 -279.17,279.17 -154.18,0 -279.17,-124.99 -279.17,-279.17 0,-154.18 124.99,-279.17 279.17,-279.17z"/>
   <path class="fil5" d="M3313.89 2259.57c117.25,0 212.29,95.05 212.29,212.29 0,117.25 -95.05,212.29 -212.29,212.29 -117.25,0 -212.29,-95.05 -212.29,-212.29 0,-117.25 95.05,-212.29 212.29,-212.29z"/>
   <path class="fil5" d="M308.26 1783.66c170.25,0 308.26,138.01 308.26,308.26 0,170.25 -138.01,308.26 -308.26,308.26 -170.25,0 -308.26,-138.01 -308.26,-308.26 0,-170.25 138.01,-308.26 308.26,-308.26z"/>
   <path class="fil6" d="M1894.75 1849.54c99.57,0 180.29,80.72 180.29,180.29 0,99.57 -80.72,180.29 -180.29,180.29 -99.57,0 -180.29,-80.72 -180.29,-180.29 0,-99.57 80.72,-180.29 180.29,-180.29z"/>
  </g>
  <path class="fil7" d="M4640.58 3233.75c173.84,0 329.7,-59.95 443.61,-155.86l0 125.89 341.69 0 0 -1519.65 -341.69 0 0 125.89c-113.9,-95.91 -269.76,-155.86 -443.61,-155.86 -452.6,0 -785.31,344.7 -785.31,791.3 0,443.61 332.71,788.3 785.31,788.3zm0 -338.7c-263.77,0 -443.61,-191.83 -443.61,-449.6 0,-260.77 179.84,-452.6 443.61,-452.6 263.77,0 443.61,191.83 443.61,452.6 0,257.78 -179.84,449.6 -443.61,449.6zm1182.6 -452.6c0,446.6 332.71,791.3 785.31,791.3 173.84,0 329.7,-59.95 443.61,-155.86l0 125.89 341.69 0 0 -2098.14 -341.69 0 0 704.38c-113.9,-95.91 -269.76,-155.86 -443.61,-155.86 -452.6,0 -785.31,344.7 -785.31,788.3zm338.7 0c0,-260.77 179.84,-449.6 446.61,-449.6 266.76,0 443.61,188.83 443.61,449.6 0,260.77 -179.84,452.6 -443.61,452.6 -263.77,0 -446.61,-191.83 -446.61,-452.6zm2903.08 155.86l287.74 605.46 257.78 0 725.35 -1519.65 -374.66 0 -482.57 1001.11 -284.75 -608.46 -260.76 0 -284.75 608.46 -479.58 -1001.11 -377.67 0 728.35 1519.65 254.78 0 290.74 -605.46zm3382.65 -914.19l-377.67 0 -479.57 1013.1 -479.58 -1013.1 -377.67 0 668.41 1405.75 -368.67 776.31 374.66 0 1040.08 -2182.06zm735.99 761.32c0,-275.75 143.88,-452.6 395.65,-452.6 251.78,0 392.65,177.05 392.65,452.6l0 758.33 341.7 0 0 -758.33c0,-461.59 -290.75,-791.3 -734.35,-791.3 -164.86,0 -296.73,53.95 -395.65,134.88l0 -104.91 -338.7 0 0 1519.65 338.7 0 0 -758.33z"/>
 </g>
</svg>
