<?xml version="1.0" encoding="UTF-8"?>
<!DOCTYPE svg PUBLIC "-//W3C//DTD SVG 1.1//EN" "http://www.w3.org/Graphics/SVG/1.1/DTD/svg11.dtd">
<!-- Creator: CorelDRAW -->
<svg xmlns="http://www.w3.org/2000/svg" xml:space="preserve" width="108.373mm" height="104.996mm" version="1.1" style="shape-rendering:geometricPrecision; text-rendering:geometricPrecision; image-rendering:optimizeQuality; fill-rule:evenodd; clip-rule:evenodd"
viewBox="0 0 2410.37 2560.05"
 xmlns:xlink="http://www.w3.org/1999/xlink"
 xmlns:xodm="http://www.corel.com/coreldraw/odm/2003">
 <defs>
  <style type="text/css">
   <![CDATA[
    .fil0 {fill:none}
    .fil7 {fill:#8740EA}
    .fil5 {fill:#974CED}
    .fil6 {fill:#E791FF}
    .fil4 {fill:#884BD4;fill-rule:nonzero}
    .fil2 {fill:#974CED;fill-rule:nonzero}
    .fil1 {fill:url(#id0);fill-rule:nonzero}
    .fil3 {fill:url(#id1);fill-rule:nonzero}
   ]]>
  </style>
  <linearGradient id="id0" gradientUnits="objectBoundingBox" x1="50%" y1="100%" x2="50%" y2="0%">
   <stop offset="0" style="stop-opacity:1; stop-color:#5A1EE2"/>
   <stop offset="1" style="stop-opacity:1; stop-color:#9F52EE"/>
  </linearGradient>
  <linearGradient id="id1" gradientUnits="userSpaceOnUse" x1="1279.45" y1="1276.73" x2="1826.35" y2="1018.32">
   <stop offset="0" style="stop-opacity:1; stop-color:#8740EA"/>
   <stop offset="1" style="stop-opacity:1; stop-color:#E791FF"/>
  </linearGradient>
 </defs>
 <g id="Слой_x0020_1">
  <metadata id="CorelCorpID_0Corel-Layer"/>
  <rect class="fil0" x="-0" width="2410.38" height="2560.05"/>
  <path class="fil1" d="M1246.08 741.76c-188.54,0 -359.22,76.41 -482.76,199.96 -123.54,123.54 -199.96,294.22 -199.96,482.76 0,188.54 76.41,359.23 199.96,482.77 123.54,123.54 294.22,199.96 482.76,199.96 188.54,0 359.23,-76.41 482.77,-199.96 19.07,-19.07 37.03,-39.27 53.75,-60.49 9.08,-11.53 25.65,-13.82 37.52,-5.19l88.47 64.28c6.22,4.52 9.92,10.68 11,18.29 1.08,7.61 -0.78,14.56 -5.51,20.62 -21.48,27.55 -44.64,53.74 -69.31,78.41 -153.22,153.22 -364.9,247.99 -598.68,247.99 -233.79,0 -445.46,-94.77 -598.68,-247.99 -153.22,-153.22 -247.99,-364.9 -247.99,-598.68 0,-233.79 94.77,-445.46 247.99,-598.68 153.22,-153.22 364.89,-247.99 598.68,-247.99 233.02,0 444.07,94.16 597.18,246.5l-141.94 91.37c-120.79,-108.14 -280.33,-173.91 -455.23,-173.91z"/>
  <polygon class="fil2" points="609.17,397.48 779,829.53 728.19,849.38 558.36,417.33 "/>
  <polygon class="fil3" points="1241.57,1320.13 1797.62,888.67 1864.23,974.92 1308.18,1406.39 "/>
  <polygon class="fil1" points="463.33,1349.37 1456.97,1947.58 1400.62,2041.09 406.98,1442.88 "/>
  <path class="fil4" d="M1407.66 1977.15c97.66,-120.17 197.41,-214.12 299.23,-281.82 102.94,-68.46 208.08,-110.16 315.38,-125.11l7.48 54.01c-99.04,13.8 -196.64,52.66 -292.75,116.58 -97.25,64.66 -192.95,154.92 -287.06,270.72l-42.27 -34.38z"/>
  <path class="fil5" d="M583.76 288.89c65.46,0 118.52,53.06 118.52,118.52 0,65.46 -53.06,118.52 -118.52,118.52 -65.46,0 -118.52,-53.06 -118.52,-118.52 0,-65.46 53.06,-118.52 118.52,-118.52z"/>
  <path class="fil6" d="M1830.93 669.87c144.66,0 261.92,117.27 261.92,261.92 0,144.66 -117.27,261.92 -261.92,261.92 -144.66,0 -261.92,-117.27 -261.92,-261.92 0,-144.66 117.27,-261.92 261.92,-261.92z"/>
  <path class="fil6" d="M1428.79 1846.58c81.61,0 147.76,66.16 147.76,147.76 0,81.61 -66.16,147.76 -147.76,147.76 -81.61,0 -147.76,-66.16 -147.76,-147.76 0,-81.61 66.16,-147.76 147.76,-147.76z"/>
  <path class="fil6" d="M2026.01 1484.86c62.06,0 112.36,50.31 112.36,112.36 0,62.06 -50.31,112.36 -112.36,112.36 -62.06,0 -112.36,-50.31 -112.36,-112.36 0,-62.06 50.31,-112.36 112.36,-112.36z"/>
  <path class="fil6" d="M435.16 1232.96c90.11,0 163.16,73.05 163.16,163.16 0,90.11 -73.05,163.16 -163.16,163.16 -90.11,0 -163.16,-73.05 -163.16,-163.16 0,-90.11 73.05,-163.16 163.16,-163.16z"/>
  <path class="fil7" d="M1274.87 1267.83c52.7,0 95.43,42.73 95.43,95.43 0,52.7 -42.73,95.43 -95.43,95.43 -52.7,0 -95.43,-42.73 -95.43,-95.43 0,-52.7 42.73,-95.43 95.43,-95.43z"/>
 </g>
</svg>
