<svg clip-rule="evenodd" fill-rule="evenodd" height="104.996mm" image-rendering="optimizeQuality" shape-rendering="geometricPrecision" text-rendering="geometricPrecision" viewBox="0 0 14313.61 3866.19" width="108.373mm" xmlns="http://www.w3.org/2000/svg" xmlns:xlink="http://www.w3.org/1999/xlink"><linearGradient id="a" gradientUnits="objectBoundingBox" x1="50%" x2="50%" y1="100%" y2="0%"><stop offset="0" stop-color="#5a1ee2"/><stop offset="1" stop-color="#9f52ee"/></linearGradient><linearGradient id="b" gradientUnits="userSpaceOnUse" x1="1903.41" x2="2936.67" y1="1866.35" y2="1378.14"><stop offset="0" stop-color="#8740ea"/><stop offset="1" stop-color="#e791ff"/></linearGradient><g fill-rule="nonzero"><path d="m1840.35 855.62c-356.21 0-678.69 144.37-912.09 377.78-233.41 233.41-377.78 555.88-377.78 912.09s144.37 678.7 377.78 912.11 555.88 377.78 912.09 377.78 678.7-144.37 912.11-377.78c36.04-36.04 69.97-74.2 101.55-114.28 17.16-21.78 48.47-26.11 70.9-9.81l167.14 121.44c11.75 8.54 18.75 20.18 20.77 34.56 2.03 14.38-1.48 27.51-10.41 38.96-40.59 52.05-84.34 101.53-130.95 148.14-289.49 289.49-689.41 468.54-1131.11 468.54-441.71 0-841.61-179.05-1131.1-468.54s-468.54-689.41-468.54-1131.11c0-441.71 179.05-841.61 468.54-1131.1s689.39-468.54 1131.1-468.54c440.25 0 839 177.9 1128.26 465.72l-268.17 172.62c-228.21-204.31-529.64-328.58-860.09-328.58z" fill="url(#a)"/><path d="m637.02 205.17 320.87 816.28-95.99 37.5-320.86-816.28z" fill="#974ced"/><path d="m1831.83 1948.35 1050.57-815.18 125.85 162.96-1050.57 815.18z" fill="url(#b)"/><path d="m361.5 2003.59 1877.3 1130.22-106.48 176.67-1877.3-1130.22z" fill="url(#a)"/><path d="m2145.63 3189.67c184.51-227.04 372.98-404.54 565.34-532.45 194.49-129.34 393.12-208.13 595.86-236.38l14.13 102.04c-187.12 26.07-371.51 99.5-553.11 220.25-183.73 122.16-364.54 292.69-542.36 511.49z" fill="#884bd4"/></g><path d="m589.03 0c123.67 0 223.92 100.25 223.92 223.92s-100.25 223.92-223.92 223.92-223.92-100.25-223.92-223.92 100.25-223.92 223.92-223.92z" fill="#974ced"/><g fill="#e791ff"><path d="m2945.33 719.79c273.31 0 494.86 221.55 494.86 494.86s-221.55 494.86-494.86 494.86-494.86-221.55-494.86-494.86 221.55-494.86 494.86-494.86z"/><path d="m2185.56 2942.97c154.18 0 279.17 124.99 279.17 279.17s-124.99 279.17-279.17 279.17-279.17-124.99-279.17-279.17 124.99-279.17 279.17-279.17z"/><path d="m3313.89 2259.57c117.25 0 212.29 95.05 212.29 212.29 0 117.25-95.05 212.29-212.29 212.29-117.25 0-212.29-95.05-212.29-212.29 0-117.25 95.05-212.29 212.29-212.29z"/><path d="m308.26 1783.66c170.25 0 308.26 138.01 308.26 308.26s-138.01 308.26-308.26 308.26-308.26-138.01-308.26-308.26 138.01-308.26 308.26-308.26z"/></g><path d="m1894.75 1849.54c99.57 0 180.29 80.72 180.29 180.29s-80.72 180.29-180.29 180.29-180.29-80.72-180.29-180.29 80.72-180.29 180.29-180.29z" fill="#8740ea"/><path d="m4640.58 3233.75c173.84 0 329.7-59.95 443.61-155.86v125.89h341.69v-1519.65h-341.69v125.89c-113.9-95.91-269.76-155.86-443.61-155.86-452.6 0-785.31 344.7-785.31 791.3 0 443.61 332.71 788.3 785.31 788.3zm0-338.7c-263.77 0-443.61-191.83-443.61-449.6 0-260.77 179.84-452.6 443.61-452.6s443.61 191.83 443.61 452.6c0 257.78-179.84 449.6-443.61 449.6zm1182.6-452.6c0 446.6 332.71 791.3 785.31 791.3 173.84 0 329.7-59.95 443.61-155.86v125.89h341.69v-2098.14h-341.69v704.38c-113.9-95.91-269.76-155.86-443.61-155.86-452.6 0-785.31 344.7-785.31 788.3zm338.7 0c0-260.77 179.84-449.6 446.61-449.6 266.76 0 443.61 188.83 443.61 449.6s-179.84 452.6-443.61 452.6-446.61-191.83-446.61-452.6zm2903.08 155.86 287.74 605.46h257.78l725.35-1519.65h-374.66l-482.57 1001.11-284.75-608.46h-260.76l-284.75 608.46-479.58-1001.11h-377.67l728.35 1519.65h254.78zm3382.65-914.19h-377.67l-479.57 1013.1-479.58-1013.1h-377.67l668.41 1405.75-368.67 776.31h374.66l1040.08-2182.06zm735.99 761.32c0-275.75 143.88-452.6 395.65-452.6 251.78 0 392.65 177.05 392.65 452.6v758.33h341.7v-758.33c0-461.59-290.75-791.3-734.35-791.3-164.86 0-296.73 53.95-395.65 134.88v-104.91h-338.7v1519.65h338.7v-758.33z" fill="#fff" fill-rule="nonzero"/></svg>
