<svg clip-rule="evenodd" fill-rule="evenodd" height="104.996mm" image-rendering="optimizeQuality" shape-rendering="geometricPrecision" text-rendering="geometricPrecision" viewBox="0 0 13833 4217.33" width="108.373mm" xmlns="http://www.w3.org/2000/svg" xmlns:xlink="http://www.w3.org/1999/xlink"><linearGradient id="a" gradientUnits="objectBoundingBox" x1="50%" x2="50%" y1="100%" y2="0%"><stop offset="0" stop-color="#5a1ee2"/><stop offset="1" stop-color="#9f52ee"/></linearGradient><linearGradient id="b" gradientUnits="userSpaceOnUse" x1="2346.93" x2="3249.83" y1="2002.05" y2="1575.43"><stop offset="0" stop-color="#8740ea"/><stop offset="1" stop-color="#e791ff"/></linearGradient><path d="m0-.01h13833.01v4217.33h-13833.01z" fill="#060320"/><g fill-rule="nonzero"><path d="m2291.83 1118.85c-311.27 0-593.06 126.16-797.01 330.11-203.96 203.96-330.11 485.75-330.11 797.01 0 311.27 126.16 593.06 330.11 797.02 203.96 203.96 485.75 330.11 797.01 330.11 311.27 0 593.06-126.16 797.02-330.11 31.49-31.49 61.14-64.84 88.74-99.86 15-19.03 42.35-22.82 61.95-8.57l146.05 106.12c10.27 7.46 16.39 17.63 18.15 30.2 1.78 12.57-1.29 24.04-9.09 34.04-35.47 45.48-73.7 88.72-114.43 129.45-252.96 252.96-602.43 409.42-988.4 409.42s-735.43-156.46-988.39-409.42-409.42-602.43-409.42-988.4 156.46-735.43 409.42-988.39 602.41-409.42 988.39-409.42c384.7 0 733.14 155.45 985.91 406.96l-234.34 150.84c-199.42-178.53-462.81-287.12-751.57-287.12z" fill="url(#a)"/><path d="m1240.33 550.46 280.38 713.29-83.87 32.77-280.39-713.29z" fill="#974ced"/><path d="m2284.39 2073.71 918.01-712.33 109.97 142.39-918.01 712.33z" fill="url(#b)"/><path d="m999.57 2121.97 1640.44 987.62-93.04 154.38-1640.45-987.62z" fill="url(#a)"/><path d="m2558.6 3158.4c161.23-198.39 325.92-353.5 494.01-465.27 169.95-113.02 343.52-181.87 520.68-206.56l12.34 89.16c-163.51 22.78-324.64 86.94-483.32 192.46-160.55 106.75-318.55 255.76-473.93 446.95l-69.78-56.75z" fill="#884bd4"/></g><path d="m1198.39 371.18c108.07 0 195.67 87.6 195.67 195.67s-87.6 195.67-195.67 195.67-195.67-87.6-195.67-195.67 87.6-195.67 195.67-195.67z" fill="#974ced"/><g fill="#e791ff"><path d="m3257.39 1000.15c238.82 0 432.42 193.6 432.42 432.42s-193.6 432.42-432.42 432.42-432.42-193.6-432.42-432.42 193.6-432.42 432.42-432.42z"/><path d="m2593.49 2942.83c134.73 0 243.95 109.22 243.95 243.95s-109.22 243.95-243.95 243.95-243.95-109.22-243.95-243.95 109.22-243.95 243.95-243.95z"/><path d="m3579.46 2345.65c102.45 0 185.51 83.05 185.51 185.51 0 102.45-83.05 185.51-185.51 185.51-102.45 0-185.51-83.05-185.51-185.51 0-102.45 83.05-185.51 185.51-185.51z"/><path d="m953.04 1929.79c148.77 0 269.36 120.6 269.36 269.36 0 148.77-120.6 269.36-269.36 269.36-148.77 0-269.36-120.6-269.36-269.36 0-148.77 120.6-269.36 269.36-269.36z"/></g><path d="m2339.37 1987.36c87.01 0 157.55 70.54 157.55 157.55s-70.54 157.55-157.55 157.55-157.55-70.54-157.55-157.55 70.54-157.55 157.55-157.55z" fill="#8740ea"/><path d="m4738.75 3196.92c151.91 0 288.11-52.39 387.63-136.2v110.01h298.58v-1327.91h-298.58v110.01c-99.53-83.81-235.73-136.2-387.63-136.2-395.49 0-686.22 301.21-686.22 691.46 0 387.63 290.73 688.84 686.22 688.84zm0-295.96c-230.49 0-387.63-167.62-387.63-392.88 0-227.87 157.15-395.49 387.63-395.49 230.49 0 387.63 167.62 387.63 395.49 0 225.25-157.15 392.88-387.63 392.88zm1033.39-395.49c0 390.25 290.73 691.46 686.22 691.46 151.91 0 288.11-52.39 387.63-136.2v110.01h298.58v-1833.41h-298.58v615.5c-99.53-83.81-235.73-136.2-387.63-136.2-395.49 0-686.22 301.21-686.22 688.84zm295.96 0c0-227.87 157.15-392.88 390.26-392.88 233.1 0 387.63 165.01 387.63 392.88s-157.15 395.49-387.63 395.49c-230.49 0-390.26-167.62-390.26-395.49zm2536.8 136.2 251.44 529.07h225.25l633.83-1327.91h-327.39l-421.69 874.8-248.82-531.69h-227.86l-248.82 531.69-419.07-874.8h-330.02l636.45 1327.91h222.64l254.05-529.07zm2955.86-798.85h-330.02l-419.06 885.28-419.07-885.28h-330.02l584.08 1228.38-322.16 678.37h327.39l908.85-1906.75zm643.13 665.26c0-240.96 125.72-395.49 345.73-395.49s343.11 154.71 343.11 395.49v662.65h298.59v-662.65c0-403.35-254.06-691.46-641.7-691.46-144.06 0-259.3 47.14-345.73 117.86v-91.67h-295.96v1327.91h295.96v-662.65z" fill="#fff" fill-rule="nonzero"/></svg>
